# xmcd
#
# Track frame offsets: 
#        150
#        18628
#        31623
#        47068
#        64817
#        83318
#        105689
#
# Disc length: 1639 seconds
#
# Revision: 0
# Processed by: cddbd v1.5.2PL0 Copyright (c) Steve Scherf et al.
# Submitted via: ExactAudioCopy v0.95b4
#
DISCID=49066507
DTITLE=Trucker - Trucker
DYEAR=1900
DGENRE=Alternative Country
TTITLE0=Gone
TTITLE1=Train
TTITLE2=Somewhere
TTITLE3=Top of the World
TTITLE4=Dry Creek Bed
TTITLE5=Backswing
TTITLE6=Just on the Horizon
EXTD=
EXTT0=
EXTT1=
EXTT2=
EXTT3=
EXTT4=
EXTT5=
EXTT6=
PLAYORDER=
